<svg xmlns="http://www.w3.org/2000/svg" version="1.1" width="250" height="229.16666666666666" viewBox="0 0 250 229.16666666666666"><defs><clipPath id="clip-1"><rect x="5" y="5" width="240" height="219.16666666666666" transform="rotate(-25.783100780887025 65.36392518417149 138.82716501257534)"/></clipPath><clipPath id="clip-2"><rect x="5" y="5" width="240" height="219.16666666666666" transform="rotate(-279.08385654689346 131.02152639738753 170.54340187485252)"/></clipPath><clipPath id="clip-3"><rect x="5" y="5" width="240" height="219.16666666666666" transform="rotate(-317.5845102672389 65.36392518417149 138.82716501257534)"/></clipPath></defs><path fill="#000000" stroke="#000000" d="M -413.303,138.827 L 545.031,138.827" style="stroke-width: 2px;stroke-opacity: 1;fill-opacity: 0" stroke-width="2" stroke-opacity="1" stroke-dasharray="0" fill-opacity="0" clip-path="url(#clip-1)" transform="rotate(25.783100780887025 65.36392518417149 138.82716501257534)"/><path fill="#000000" stroke="#000000" d="M 240.1,230.767 C 240.45,228.667 244.3,225.517 245.35,225.167 C 244.3,224.817 240.45,221.667 240.1,219.567" transform="rotate(25.783100780887025 245.3502801044667 225.16666666666666)" style="stroke-width: 2px;stroke-opacity: 1;fill-opacity: 0;stroke-linejoin: round;stroke-linecap: round" stroke-width="2" stroke-opacity="1" stroke-dasharray="-2" fill-opacity="0" stroke-linejoin="round" stroke-linecap="round"/><path fill="#000000" stroke="#000000" d="M -0.5,114.543 C -0.15,112.443 3.7,109.293 4.75,108.943 C 3.7,108.593 -0.15,105.443 -0.5,103.343" transform="rotate(205.78310078088703 4.7500000000000036 108.94348257343628)" style="stroke-width: 2px;stroke-opacity: 1;fill-opacity: 0;stroke-linejoin: round;stroke-linecap: round" stroke-width="2" stroke-opacity="1" stroke-dasharray="-2" fill-opacity="0" stroke-linejoin="round" stroke-linecap="round"/><path fill="#000000" stroke="#000000" d="M -347.645,170.543 L 610.688,170.543" style="stroke-width: 2px;stroke-opacity: 1;fill-opacity: 0" stroke-width="2" stroke-opacity="1" stroke-dasharray="0" fill-opacity="0" clip-path="url(#clip-2)" transform="rotate(279.08385654689346 131.02152639738753 170.54340187485252)"/><path fill="#000000" stroke="#000000" d="M 153.649,9.6 C 153.999,7.5 157.849,4.35 158.899,4 C 157.849,3.65 153.999,0.5 153.649,-1.6" transform="rotate(279.08385654689346 158.8993309875405 4.0000000000000036)" style="stroke-width: 2px;stroke-opacity: 1;fill-opacity: 0;stroke-linejoin: round;stroke-linecap: round" stroke-width="2" stroke-opacity="1" stroke-dasharray="-2" fill-opacity="0" stroke-linejoin="round" stroke-linecap="round"/><path fill="#000000" stroke="#000000" d="M 118.288,230.767 C 118.638,228.667 122.488,225.517 123.538,225.167 C 122.488,224.817 118.638,221.667 118.288,219.567" transform="rotate(99.08385654689346 123.53808151407964 225.16666666666666)" style="stroke-width: 2px;stroke-opacity: 1;fill-opacity: 0;stroke-linejoin: round;stroke-linecap: round" stroke-width="2" stroke-opacity="1" stroke-dasharray="-2" fill-opacity="0" stroke-linejoin="round" stroke-linecap="round"/><path fill="#000000" stroke="#000000" d="M -413.303,138.827 L 545.031,138.827" style="stroke-width: 2px;stroke-opacity: 1;fill-opacity: 0" stroke-width="2" stroke-opacity="1" stroke-dasharray="0" fill-opacity="0" clip-path="url(#clip-3)" transform="rotate(317.5845102672389 65.36392518417149 138.82716501257534)"/><path fill="#000000" stroke="#000000" d="M 208.938,9.6 C 209.288,7.5 213.138,4.35 214.188,4 C 213.138,3.65 209.288,0.5 208.938,-1.6" transform="rotate(317.5845102672389 214.18836935643347 4.0000000000000036)" style="stroke-width: 2px;stroke-opacity: 1;fill-opacity: 0;stroke-linejoin: round;stroke-linecap: round" stroke-width="2" stroke-opacity="1" stroke-dasharray="-2" fill-opacity="0" stroke-linejoin="round" stroke-linecap="round"/><path fill="#000000" stroke="#000000" d="M -0.5,200.947 C -0.15,198.847 3.7,195.697 4.75,195.347 C 3.7,194.997 -0.15,191.847 -0.5,189.747" transform="rotate(137.5845102672389 4.7500000000000036 195.34736873697904)" style="stroke-width: 2px;stroke-opacity: 1;fill-opacity: 0;stroke-linejoin: round;stroke-linecap: round" stroke-width="2" stroke-opacity="1" stroke-dasharray="-2" fill-opacity="0" stroke-linejoin="round" stroke-linecap="round"/><path fill="#000000" stroke="#000000" d="M 142.725,175.955 A 12.4424,12.4424 0 0,0 133.486,158.257" style="stroke-width: 1px;stroke-opacity: 1;fill-opacity: 0" stroke-width="1" stroke-opacity="1" stroke-dasharray="0" fill-opacity="0"/><path fill="#000000" stroke="#000000" d="M 51.5344,131.905 A 15.9138,15.9138 0 0,0 54.1152,149.561" style="stroke-width: 1px;stroke-opacity: 1;fill-opacity: 0" stroke-width="1" stroke-opacity="1" stroke-dasharray="0" fill-opacity="0"/><path fill="#000000" stroke="#000000" d="M 130.061,80.1751 A 25.2348,25.2348 0 0,0 144.707,88.0725" style="stroke-width: 1px;stroke-opacity: 1;fill-opacity: 0" stroke-width="1" stroke-opacity="1" stroke-dasharray="0" fill-opacity="0"/></svg>